<?xml version="1.0" encoding="utf-8"?>
<!-- Generator: Adobe Illustrator 25.2.3, SVG Export Plug-In . SVG Version: 6.00 Build 0)  -->
<svg version="1.1" id="Layer_1" xmlns="http://www.w3.org/2000/svg" xmlns:xlink="http://www.w3.org/1999/xlink" x="0px" y="0px"
	 viewBox="0 0 13 15.9" style="enable-background:new 0 0 13 15.9;" xml:space="preserve">
<style type="text/css">
	.st0{fill:#E5E5E5;}
</style>
<path class="st0" d="M12.6,5.4c-1.1,0.6-1.7,1.8-1.7,3c0,1.4,0.8,2.7,2.1,3.2c-0.2,0.8-0.6,1.6-1.1,2.3c-0.7,1-1.4,2-2.5,2
	S8,15.3,6.8,15.3c-1.2,0-1.7,0.7-2.6,0.7s-1.7-0.9-2.5-2C0.6,12.3,0,10.5,0,8.6c0-3.1,2-4.7,4-4.7c1.1,0,1.9,0.7,2.6,0.7
	c0.6,0,1.6-0.7,2.8-0.7C10.6,3.8,11.8,4.4,12.6,5.4z M8.8,2.5c0.5-0.6,0.8-1.4,0.8-2.2c0-0.1,0-0.2,0-0.3C8.7,0.1,7.9,0.5,7.3,1.2
	C6.8,1.8,6.5,2.6,6.4,3.4c0,0.1,0,0.2,0,0.3c0.1,0,0.1,0,0.2,0C7.5,3.6,8.3,3.2,8.8,2.5z"/>
</svg>
