<?xml version="1.0" encoding="utf-8"?>
<!-- Generator: Adobe Illustrator 25.2.3, SVG Export Plug-In . SVG Version: 6.00 Build 0)  -->
<svg version="1.1" id="Layer_1" xmlns="http://www.w3.org/2000/svg" xmlns:xlink="http://www.w3.org/1999/xlink" x="0px" y="0px"
	 viewBox="0 0 15 17" style="enable-background:new 0 0 15 17;" xml:space="preserve">
<style type="text/css">
	.st0{fill:#E5E5E5;}
</style>
<path class="st0" d="M14.3,14.1l-3.9-3.9c0.7-0.9,1.1-2.1,1.1-3.3c0-3.1-2.5-5.6-5.6-5.6c-3.1,0-5.6,2.5-5.6,5.6
	c0,3.1,2.5,5.5,5.6,5.5c1.3,0,2.4-0.4,3.3-1.1l3.9,3.9c0.2,0.2,0.4,0.2,0.5,0.2s0.4-0.1,0.5-0.2C14.6,14.9,14.6,14.4,14.3,14.1z
	 M1.5,6.9c0-2.5,2-4.4,4.4-4.4c2.5,0,4.4,2,4.4,4.4s-2,4.5-4.4,4.5S1.5,9.4,1.5,6.9z"/>
</svg>
