<?xml version="1.0" encoding="utf-8"?>
<!-- Generator: Adobe Illustrator 25.2.3, SVG Export Plug-In . SVG Version: 6.00 Build 0)  -->
<svg version="1.1" id="Layer_1" xmlns="http://www.w3.org/2000/svg" xmlns:xlink="http://www.w3.org/1999/xlink" x="0px" y="0px"
	 viewBox="0 0 15 17" style="enable-background:new 0 0 15 17;" xml:space="preserve">
<style type="text/css">
	.st0{fill:#E5E5E5;}
</style>
<path class="st0" d="M11.9,4h-1c-0.2-1.7-1.6-2.9-3.3-3c-1.7,0-3.1,1.3-3.3,3h-1C2,4,1,5,1,6.1v7.7C1,15,2,16,3.1,16h8.7
	C13,16,14,15,14,13.8V6.1C14,5,13,4,11.9,4z M7.5,2.1c1.1,0,2,0.8,2.2,1.9H5.3C5.5,2.9,6.4,2.2,7.5,2.1z M12.9,13.8c0,0.6-0.5,1-1,1
	H3.1c-0.6,0-1-0.5-1-1V6.1c0-0.6,0.5-1,1-1h8.7c0.6,0,1,0.5,1,1L12.9,13.8z"/>
</svg>
