<svg width="16" height="16" viewBox="0 0 16 16" fill="none" xmlns="http://www.w3.org/2000/svg">
<g clip-path="url(#clip0_309_6)">
<path d="M14.9422 7.79111C13.4444 5.02222 10.8178 3.34667 7.9111 3.34667C5.00443 3.34667 2.37332 5.02222 0.888879 7.79111L0.764435 8L0.87999 8.21333C2.37777 10.9822 5.00443 12.6578 7.9111 12.6578C10.8178 12.6578 13.4489 11.0044 14.9422 8.21333L15.0578 8L14.9422 7.79111ZM7.9111 11.7467C5.40888 11.7467 3.1111 10.3511 1.77777 8C3.1111 5.64889 5.40888 4.25333 7.9111 4.25333C10.4133 4.25333 12.6844 5.65333 14.04 8C12.6844 10.3511 10.4089 11.7467 7.9111 11.7467Z" fill="#C7D2D6"/>
<path d="M8.04001 4.96444C7.43739 4.96884 6.8496 5.15172 6.35086 5.48999C5.85212 5.82826 5.46482 6.30674 5.23786 6.865C5.0109 7.42325 4.95447 8.03625 5.07569 8.62656C5.19692 9.21687 5.49036 9.75802 5.91896 10.1817C6.34755 10.6053 6.89208 10.8924 7.48376 11.0068C8.07545 11.1211 8.68774 11.0575 9.24332 10.8241C9.7989 10.5906 10.2728 10.1978 10.6053 9.69515C10.9377 9.19251 11.1137 8.60262 11.1111 8C11.1094 7.59886 11.0285 7.20201 10.8731 6.83219C10.7177 6.46236 10.4909 6.12684 10.2056 5.84485C9.92026 5.56285 9.58212 5.33993 9.21051 5.18885C8.8389 5.03778 8.44114 4.96152 8.04001 4.96444ZM8.04001 10.1733C7.61434 10.1689 7.19946 10.0389 6.84748 9.79947C6.49549 9.56006 6.2221 9.22199 6.06162 8.82771C5.90115 8.43343 5.86076 8.00052 5.94552 7.58335C6.03028 7.16619 6.23642 6.78337 6.53804 6.48298C6.83966 6.18259 7.22331 5.97802 7.64082 5.89496C8.05833 5.8119 8.49106 5.85406 8.88469 6.01614C9.27831 6.17822 9.61527 6.453 9.85324 6.80596C10.0912 7.15892 10.2196 7.57432 10.2222 8C10.2234 8.28649 10.1677 8.57036 10.0584 8.83516C9.949 9.09996 9.78816 9.34041 9.58517 9.54258C9.38218 9.74474 9.14107 9.9046 8.87583 10.0129C8.61059 10.1211 8.32649 10.1757 8.04001 10.1733Z" fill="#C7D2D6"/>
</g>
<defs>
<clipPath id="clip0_309_6">
<rect width="16" height="16" fill="white"/>
</clipPath>
</defs>
</svg>
