<svg width="204" height="41" viewBox="0 0 204 41" fill="none" xmlns="http://www.w3.org/2000/svg">
<g id="Group 12">
<path id="Star 1" d="M18.4978 5.85411C19.0965 4.01149 21.7034 4.01148 22.3021 5.8541L24.531 12.714C24.7987 13.5381 25.5666 14.096 26.4331 14.096L33.6461 14.096C35.5835 14.096 36.3891 16.5752 34.8216 17.714L28.9862 21.9537C28.2853 22.463 27.9919 23.3658 28.2597 24.1898L30.4886 31.0497C31.0873 32.8924 28.9784 34.4246 27.4109 33.2858L21.5755 29.0461C20.8745 28.5368 19.9253 28.5368 19.2244 29.0461L13.3889 33.2858C11.8215 34.4246 9.71257 32.8924 10.3113 31.0497L12.5402 24.1898C12.808 23.3657 12.5146 22.463 11.8137 21.9537L5.97824 17.714C4.41081 16.5752 5.21636 14.096 7.15381 14.096L14.3668 14.096C15.2332 14.096 16.0012 13.5381 16.2689 12.714L18.4978 5.85411Z" fill="white"/>
<path id="Star 2" d="M59.2974 5.85411C59.8961 4.01149 62.5029 4.01148 63.1016 5.8541L65.3305 12.714C65.5983 13.5381 66.3662 14.096 67.2327 14.096L74.4456 14.096C76.3831 14.096 77.1886 16.5752 75.6212 17.714L69.7858 21.9537C69.0848 22.463 68.7915 23.3658 69.0592 24.1898L71.2882 31.0497C71.8869 32.8924 69.7779 34.4246 68.2105 33.2858L62.3751 29.0461C61.6741 28.5368 60.7249 28.5368 60.0239 29.0461L54.1885 33.2858C52.6211 34.4246 50.5121 32.8924 51.1108 31.0497L53.3398 24.1898C53.6075 23.3657 53.3142 22.463 52.6132 21.9537L46.7778 17.714C45.2104 16.5752 46.0159 14.096 47.9534 14.096L55.1663 14.096C56.0328 14.096 56.8007 13.5381 57.0685 12.714L59.2974 5.85411Z" fill="white"/>
<path id="Star 3" d="M100.098 5.85411C100.696 4.01149 103.303 4.01148 103.902 5.8541L106.131 12.714C106.399 13.5381 107.167 14.096 108.033 14.096L115.246 14.096C117.183 14.096 117.989 16.5752 116.422 17.714L110.586 21.9537C109.885 22.463 109.592 23.3658 109.86 24.1898L112.088 31.0497C112.687 32.8924 110.578 34.4246 109.011 33.2858L103.175 29.0461C102.474 28.5368 101.525 28.5368 100.824 29.0461L94.9888 33.2858C93.4214 34.4246 91.3124 32.8924 91.9111 31.0497L94.1401 24.1898C94.4078 23.3657 94.1145 22.463 93.4135 21.9537L87.5781 17.714C86.0107 16.5752 86.8162 14.096 88.7537 14.096L95.9666 14.096C96.8331 14.096 97.601 13.5381 97.8688 12.714L100.098 5.85411Z" fill="white"/>
<path id="Star 4" d="M140.897 5.85411C141.496 4.01149 144.103 4.01148 144.701 5.8541L146.93 12.714C147.198 13.5381 147.966 14.096 148.833 14.096L156.045 14.096C157.983 14.096 158.788 16.5752 157.221 17.714L151.386 21.9537C150.685 22.463 150.391 23.3658 150.659 24.1898L152.888 31.0497C153.487 32.8924 151.378 34.4246 149.81 33.2858L143.975 29.0461C143.274 28.5368 142.325 28.5368 141.624 29.0461L135.788 33.2858C134.221 34.4246 132.112 32.8924 132.711 31.0497L134.94 24.1898C135.207 23.3657 134.914 22.463 134.213 21.9537L128.378 17.714C126.81 16.5752 127.616 14.096 129.553 14.096L136.766 14.096C137.633 14.096 138.401 13.5381 138.668 12.714L140.897 5.85411Z" fill="white"/>
<path id="Star 5" d="M181.698 5.85411C182.296 4.01149 184.903 4.01148 185.502 5.8541L187.731 12.714C187.998 13.5381 188.766 14.096 189.633 14.096L196.846 14.096C198.783 14.096 199.589 16.5752 198.021 17.714L192.186 21.9537C191.485 22.463 191.192 23.3658 191.459 24.1898L193.688 31.0497C194.287 32.8924 192.178 34.4246 190.611 33.2858L184.775 29.0461C184.074 28.5368 183.125 28.5368 182.424 29.0461L176.589 33.2858C175.021 34.4246 172.912 32.8924 173.511 31.0497L175.74 24.1898C176.008 23.3657 175.714 22.463 175.013 21.9537L169.178 17.714C167.611 16.5752 168.416 14.096 170.354 14.096L177.566 14.096C178.433 14.096 179.201 13.5381 179.469 12.714L181.698 5.85411Z" fill="url(#paint0_linear_6_2)"/>
</g>
<defs>
<linearGradient id="paint0_linear_6_2" x1="183.6" y1="0" x2="183.6" y2="40.7999" gradientUnits="userSpaceOnUse">
<stop offset="0.354167" stop-color="#57575B"/>
</linearGradient>
</defs>
</svg>
